<svg width="168" height="33" viewBox="0 0 168 33" fill="none" xmlns="http://www.w3.org/2000/svg">
<g clip-path="url(#clip0_90_435)">
<path d="M27.3694 18.1309V4.68733L20.218 0.632233H13.1108L23.8378 6.71488V12.8416V20.1584L27.3694 18.1309Z" fill="#B892FF"/>
<path d="M8.82883 25.7562L20.218 32.3678H20.1739L20.3504 32.5L27.6784 28.2686L31.2099 22.1419L20.4387 28.4008L8.82883 21.7011V25.7562Z" fill="#B892FF"/>
<path d="M23.0432 21.7893H23.0874L16.7306 25.4036L20.218 27.4311L31.7838 20.6873V12.1804L28.2522 6.05372V18.6157L23.0432 21.7893Z" fill="#B892FF"/>
<path d="M22.9549 7.19972L11.3892 0.5L4.06126 4.7314L0.529724 10.9022L11.4775 4.59917L16.7748 7.68457H16.6865L22.9549 11.2989V7.19972Z" fill="#B892FF"/>
<path d="M11.5658 5.61295L0 12.3567V20.8196L3.53153 26.9463V14.3843L8.74054 11.2989L15.0973 7.64049L11.5658 5.61295Z" fill="#B892FF"/>
<path d="M4.41441 14.8691V28.3127L11.5658 32.3678H18.7171L7.94594 26.2851V20.1584V12.8416L4.41441 14.8691Z" fill="#B892FF"/>
<path d="M49.3131 22.4378C44.4545 22.4378 40.8649 19.1389 40.8649 13.9567C40.8649 8.77443 44.4545 5.48701 49.3131 5.48701C52.9942 5.48701 55.9437 7.37039 57.1211 10.498L53.9202 11.6623C53.1885 9.74468 51.4395 8.63742 49.3131 8.63742C46.4666 8.63742 44.283 10.6235 44.283 13.9567C44.283 17.2898 46.4665 19.2872 49.3131 19.2872C51.4395 19.2872 53.1885 18.1686 53.9202 16.2509L57.1211 17.4152C55.9436 20.5428 52.9942 22.4378 49.3131 22.4378ZM62.6542 12.3358C63.2487 11.2971 64.792 10.3382 66.4954 10.3382V13.2718C64.0033 13.2718 62.8144 14.0024 62.8144 16.4908V22.2095H59.4991V10.4753H62.6543L62.6542 12.3358ZM76.121 10.4753H79.4935L72.2457 27.7347H68.9075L71.594 21.7306L66.7582 10.4758H70.3478L73.1487 18.1921L76.121 10.4753ZM88.1247 10.2474C91.2228 10.2474 93.7836 12.519 93.7836 16.3657C93.7836 20.2124 91.2228 22.484 88.1247 22.484C86.5929 22.484 85.221 21.8904 84.5236 20.8174V27.9173H81.2312V10.4756H84.3521L84.4436 12.0508C85.0952 10.8866 86.5243 10.2474 88.1247 10.2474ZM87.3816 19.7554C89.1078 19.7554 90.4912 18.4998 90.4912 16.3652C90.4912 14.2306 89.108 12.9751 87.3816 12.9751C85.6211 12.9751 84.2492 14.3106 84.2492 16.3652C84.2492 18.4198 85.6211 19.7554 87.3816 19.7554ZM100.643 22.2095C98.3563 22.2095 97.0531 20.8854 97.0531 18.5454V12.9979H94.7438V10.4752H95.4868C96.733 10.4752 97.4189 9.9958 97.4189 8.23791V6.68555H100.391V10.4752H102.815V12.9979H100.391V18.1916C100.391 19.2417 100.906 19.7097 101.752 19.7097H102.815V22.2095H100.643ZM110.84 22.4378C107.102 22.4378 104.404 20.1662 104.404 16.331C104.404 12.5185 107.079 10.247 110.84 10.247C114.624 10.247 117.288 12.5185 117.288 16.331C117.288 20.1664 114.613 22.4378 110.84 22.4378ZM110.806 19.8239C112.715 19.8239 114.018 18.4313 114.018 16.331C114.018 14.2306 112.715 12.8381 110.806 12.8381C108.965 12.8381 107.673 14.2306 107.673 16.331C107.673 18.4313 108.965 19.8239 110.806 19.8239ZM123.598 19.1846H128.777V22.2095H120.169V5.71575H123.598V19.1846ZM142.015 16.1712L141.98 16.9588H133.269C133.406 18.9107 134.71 19.8467 136.276 19.8467C137.453 19.8467 138.368 19.2988 138.814 18.2601L141.832 18.7053C141.054 21.0796 138.939 22.4379 136.299 22.4379C132.503 22.4379 130.022 20.2006 130.022 16.3425C130.022 12.4845 132.572 10.2243 136.196 10.2243C139.522 10.2243 142.003 12.0619 142.015 16.1712ZM136.219 12.5528C134.722 12.5528 133.681 13.249 133.361 14.8129H138.757C138.586 13.3175 137.568 12.5528 136.219 12.5528ZM151.458 10.2474C154.282 10.2474 155.836 11.7085 155.836 14.3111V22.21H152.532V15.0188C152.532 13.455 151.561 12.8842 150.429 12.8842C149.069 12.8842 147.834 13.5691 147.811 15.7379V22.21H144.519V10.4758H147.811V11.7771C148.634 10.8068 149.903 10.2474 151.458 10.2474ZM163.164 22.4378C160.523 22.4378 158.477 21.3991 158.054 19.1732L160.809 18.397C161.164 19.6526 162.055 20.1434 163.164 20.1434C163.976 20.1434 164.856 19.8923 164.833 18.9676C164.822 17.7463 162.97 17.6435 161.106 16.9815C159.7 16.4907 158.351 15.7372 158.351 13.7626C158.351 11.3541 160.352 10.2469 162.958 10.2469C165.245 10.2469 167.154 11.1144 167.611 13.3517L165.062 13.9225C164.708 12.8266 163.93 12.4386 162.97 12.4386C162.101 12.4386 161.358 12.7468 161.358 13.4773C161.358 14.4019 162.718 14.5845 164.193 14.9841C166.011 15.4749 168 16.2626 168 18.7738C168 21.4676 165.702 22.4378 163.164 22.4378Z" fill="#B892FF"/>
</g>
<defs>
<clipPath id="clip0_90_435">
<rect width="168" height="32" fill="white" transform="translate(0 0.5)"/>
</clipPath>
</defs>
</svg>
